<?xml version="1.0" encoding="utf-8"?>
<!-- Generator: Adobe Illustrator 19.0.0, SVG Export Plug-In . SVG Version: 6.00 Build 0)  -->
<svg version="1.1" id="Layer_1" xmlns:sketch="http://www.bohemiancoding.com/sketch/ns"
	 xmlns="http://www.w3.org/2000/svg" xmlns:xlink="http://www.w3.org/1999/xlink" x="0px" y="0px" viewBox="-272 395.9 50 50"
	 style="enable-background:new -272 395.9 50 50;" xml:space="preserve">
<style type="text/css">
	.st0{fill:#FFFFFF;}
</style>
<title></title>
<g id="XMLID_1_">
	<g>
		<path class="st0" d="M-225.9,404.8V437c0,2.6-2.4,5-5,5h-32.2c-2.6,0-5-2.1-5-5v-32.2c0-2.9,2.4-5,5-5h32.2
			C-228.3,399.8-225.9,401.9-225.9,404.8z M-230.6,411.7v-5.8c0-0.5-0.5-1.1-1.1-1.1h-5.8c-0.5,0-1.1,0.5-1.1,1.1v5.8
			c-0.3,0.5,0.3,1.1,1.1,1.1h5.8C-231.2,412.7-230.6,412.2-230.6,411.7z M-230.9,435.9v-18.5h-4c0.5,1.1,0.8,2.4,0.8,3.4
			c0,7.1-5.8,12.9-12.9,12.9c-7.1,0-12.9-5.8-12.9-12.9c0-1.1,0.3-2.4,0.5-3.4h-4v18.5c0,0.5,0.5,1.1,1.1,1.1h30.4
			C-231.4,437-230.9,436.5-230.9,435.9z M-238.8,420.9c0-4.5-3.7-8.2-8.2-8.2c-4.5,0-8.2,3.7-8.2,8.2s3.7,8.2,8.2,8.2
			C-242.5,429.1-238.8,425.4-238.8,420.9z"/>
	</g>
	<g>
	</g>
</g>
</svg>
