<?xml version="1.0" encoding="utf-8"?>
<!-- Generator: Adobe Illustrator 19.0.0, SVG Export Plug-In . SVG Version: 6.00 Build 0)  -->
<svg version="1.1" xmlns="http://www.w3.org/2000/svg" xmlns:xlink="http://www.w3.org/1999/xlink" x="0px" y="0px"
	 viewBox="-281 404.9 32 32" style="enable-background:new -281 404.9 32 32;" xml:space="preserve">
<style type="text/css">
	.st0{fill:#FFFFFF;}
</style>
<g id="Layer_2">
</g>
<g id="Layer_1">
	<path class="st0" d="M-252.2,407.3h-26.7v26.5c0,0.7,0.6,1.2,1.1,1.2h26.5v-26.7C-251.1,407.8-251.6,407.3-252.2,407.3z
		 M-270.6,430.9h-4.2v-13.2h4.2V430.9z M-272.7,415.8c-1.3,0-2.4-1-2.4-2.4c0-1.3,1-2.4,2.4-2.4c1.3,0,2.4,1,2.4,2.4
		C-270.2,414.9-271.3,415.8-272.7,415.8z M-255.2,430.9h-4.1v-6.4c0-1.5,0-3.4-2.2-3.4c-2.2,0-2.4,1.7-2.4,3.4v6.6h-4.1v-13.3h3.9
		v1.9h0.1c0.6-1,1.9-2.2,3.9-2.2c4.2,0,5,2.8,5,6.3L-255.2,430.9L-255.2,430.9z"/>
</g>
</svg>
