<?xml version="1.0" encoding="iso-8859-1"?>
<!-- Generator: Adobe Illustrator 19.0.0, SVG Export Plug-In . SVG Version: 6.00 Build 0)  -->
<svg version="1.1" id="Layer_1" xmlns="http://www.w3.org/2000/svg" xmlns:xlink="http://www.w3.org/1999/xlink" x="0px" y="0px"
	 viewBox="0 0 592 246.075" style="enable-background:new 0 0 592 246.075;" xml:space="preserve">
<circle style="display:none;fill:none;" cx="295.276" cy="301.637" r="227.261"/>
<g id="XMLID_36_">
	<path id="XMLID_105_" style="fill:#FFFFFF;" d="M49.843,182.959v-8.503h-2.276v-1.959l2.403-0.158l0.316-4.299h2.181v4.299h4.141
		v2.117h-4.141v8.534c0,1.898,0.601,2.972,2.371,2.972c0.538,0,1.233-0.222,1.738-0.411l0.506,1.96
		c-0.854,0.285-1.896,0.569-2.844,0.569C50.949,188.08,49.843,185.993,49.843,182.959z"/>
	<path id="XMLID_103_" style="fill:#FFFFFF;" d="M61.189,165.195h2.592v6.133l-0.095,3.161c1.455-1.391,3.003-2.529,5.121-2.529
		c3.224,0,4.678,2.086,4.678,6.006v9.735h-2.592v-9.388c0-2.876-0.885-4.108-2.908-4.108c-1.581,0-2.655,0.821-4.204,2.37V187.7
		h-2.592V165.195z"/>
	<path id="XMLID_100_" style="fill:#FFFFFF;" d="M78.349,180.051c0-5.026,3.382-8.092,6.891-8.092c3.919,0,6.131,2.814,6.131,7.207
		c0,0.538-0.031,1.107-0.095,1.485H80.909c0.189,3.256,2.181,5.342,5.12,5.342c1.455,0,2.687-0.474,3.825-1.201l0.917,1.707
		c-1.327,0.854-2.971,1.581-5.057,1.581C81.604,188.08,78.349,185.077,78.349,180.051z M89.096,178.786
		c0-3.097-1.391-4.773-3.793-4.773c-2.149,0-4.108,1.738-4.425,4.773H89.096z"/>
	<path id="XMLID_97_" style="fill:#FFFFFF;" d="M106.097,186.12h-0.095l-0.221,1.581h-2.086v-22.505h2.592v6.133l-0.063,2.781
		c1.391-1.233,3.098-2.15,4.804-2.15c3.983,0,6.101,3.066,6.101,7.807c0,5.247-3.13,8.314-6.638,8.314
		C109.068,188.08,107.456,187.353,106.097,186.12z M114.442,179.798c0-3.382-1.138-5.658-4.046-5.658
		c-1.296,0-2.655,0.727-4.109,2.087v8.059c1.359,1.169,2.75,1.613,3.761,1.613C112.577,185.899,114.442,183.592,114.442,179.798z"/>
	<path id="XMLID_95_" style="fill:#FFFFFF;" d="M122.278,172.339h2.15l0.221,2.781h0.095c1.043-1.928,2.623-3.161,4.362-3.161
		c0.664,0,1.138,0.095,1.644,0.316l-0.506,2.276c-0.506-0.158-0.854-0.253-1.485-0.253c-1.296,0-2.845,0.949-3.888,3.541v9.861
		h-2.592V172.339z"/>
	<path id="XMLID_92_" style="fill:#FFFFFF;" d="M132.644,183.717c0-3.35,2.876-5.025,9.419-5.752c0-1.96-0.632-3.857-3.161-3.857
		c-1.77,0-3.382,0.822-4.583,1.643l-1.011-1.801c1.423-0.916,3.571-1.992,6.038-1.992c3.761,0,5.341,2.497,5.341,6.322v9.419h-2.149
		l-0.221-1.834h-0.095c-1.454,1.202-3.16,2.214-5.089,2.214C134.572,188.08,132.644,186.467,132.644,183.717z M142.063,183.939
		v-4.268c-5.121,0.633-6.89,1.898-6.89,3.857c0,1.738,1.201,2.465,2.718,2.465C139.377,185.993,140.578,185.266,142.063,183.939z"/>
	<path id="XMLID_90_" style="fill:#FFFFFF;" d="M150.627,172.339h2.15l0.221,2.212h0.095c1.454-1.454,3.034-2.592,5.152-2.592
		c3.224,0,4.678,2.086,4.678,6.006v9.735h-2.592v-9.388c0-2.876-0.885-4.108-2.908-4.108c-1.581,0-2.655,0.821-4.204,2.37V187.7
		h-2.592V172.339z"/>
	<path id="XMLID_87_" style="fill:#FFFFFF;" d="M167.914,180.051c0-4.993,3.16-8.092,6.669-8.092c1.77,0,2.94,0.664,4.298,1.77
		l-0.126-2.623v-5.911h2.623V187.7h-2.15l-0.221-1.801h-0.095c-1.201,1.169-2.845,2.181-4.646,2.181
		C170.411,188.08,167.914,185.173,167.914,180.051z M178.756,183.781v-8.029c-1.296-1.169-2.465-1.612-3.73-1.612
		c-2.465,0-4.425,2.371-4.425,5.88c0,3.666,1.549,5.88,4.235,5.88C176.258,185.899,177.491,185.204,178.756,183.781z"/>
	<path id="XMLID_84_" style="fill:#FFFFFF;" d="M186.528,180.051c0-5.026,3.382-8.092,6.89-8.092c3.92,0,6.132,2.814,6.132,7.207
		c0,0.538-0.031,1.107-0.095,1.485h-10.367c0.189,3.256,2.181,5.342,5.12,5.342c1.455,0,2.687-0.474,3.825-1.201l0.917,1.707
		c-1.327,0.854-2.971,1.581-5.057,1.581C189.784,188.08,186.528,185.077,186.528,180.051z M197.275,178.786
		c0-3.097-1.391-4.773-3.793-4.773c-2.149,0-4.109,1.738-4.425,4.773H197.275z"/>
	<path id="XMLID_81_" style="fill:#FFFFFF;" d="M203.342,180.051c0-4.993,3.16-8.092,6.669-8.092c1.77,0,2.94,0.664,4.298,1.77
		l-0.126-2.623v-5.911h2.623V187.7h-2.15l-0.221-1.801h-0.095c-1.201,1.169-2.845,2.181-4.647,2.181
		C205.838,188.08,203.342,185.173,203.342,180.051z M214.183,183.781v-8.029c-1.296-1.169-2.466-1.612-3.73-1.612
		c-2.465,0-4.425,2.371-4.425,5.88c0,3.666,1.548,5.88,4.235,5.88C211.686,185.899,212.919,185.204,214.183,183.781z"/>
	<path id="XMLID_79_" style="fill:#FFFFFF;" d="M230.52,172.339h2.15l0.221,2.212h0.095c1.327-1.454,2.94-2.592,4.773-2.592
		c2.339,0,3.603,1.107,4.236,2.939c1.612-1.738,3.192-2.939,5.057-2.939c3.16,0,4.677,2.086,4.677,6.006v9.735h-2.591v-9.388
		c0-2.876-0.917-4.108-2.845-4.108c-1.201,0-2.433,0.79-3.856,2.37V187.7h-2.592v-9.388c0-2.876-0.917-4.108-2.876-4.108
		c-1.138,0-2.434,0.79-3.856,2.37V187.7h-2.592V172.339z"/>
	<path id="XMLID_76_" style="fill:#FFFFFF;" d="M256.688,180.051c0-5.026,3.382-8.092,6.891-8.092c3.919,0,6.131,2.814,6.131,7.207
		c0,0.538-0.031,1.107-0.095,1.485h-10.367c0.189,3.256,2.181,5.342,5.12,5.342c1.455,0,2.687-0.474,3.825-1.201l0.917,1.707
		c-1.327,0.854-2.971,1.581-5.057,1.581C259.944,188.08,256.688,185.077,256.688,180.051z M267.435,178.786
		c0-3.097-1.391-4.773-3.793-4.773c-2.149,0-4.108,1.738-4.425,4.773H267.435z"/>
	<path id="XMLID_74_" style="fill:#FFFFFF;" d="M274.607,172.339h2.15l0.221,2.781h0.095c1.043-1.928,2.623-3.161,4.362-3.161
		c0.664,0,1.138,0.095,1.644,0.316l-0.506,2.276c-0.506-0.158-0.854-0.253-1.485-0.253c-1.296,0-2.845,0.949-3.888,3.541v9.861
		h-2.592V172.339z"/>
	<path id="XMLID_72_" style="fill:#FFFFFF;" d="M285.226,180.051c0-5.153,3.446-8.092,7.396-8.092c2.023,0,3.414,0.822,4.489,1.802
		l-1.328,1.706c-0.885-0.79-1.833-1.359-3.066-1.359c-2.782,0-4.805,2.403-4.805,5.942c0,3.508,1.928,5.88,4.742,5.88
		c1.423,0,2.655-0.696,3.603-1.549l1.138,1.738c-1.391,1.233-3.13,1.96-4.963,1.96C288.355,188.08,285.226,185.14,285.226,180.051z"
		/>
	<path id="XMLID_70_" style="fill:#FFFFFF;" d="M301.881,165.195h2.592v6.133l-0.095,3.161c1.455-1.391,3.003-2.529,5.121-2.529
		c3.224,0,4.677,2.086,4.677,6.006v9.735h-2.592v-9.388c0-2.876-0.885-4.108-2.908-4.108c-1.581,0-2.655,0.821-4.204,2.37V187.7
		h-2.592V165.195z"/>
	<path id="XMLID_67_" style="fill:#FFFFFF;" d="M319.231,183.717c0-3.35,2.876-5.025,9.419-5.752c0-1.96-0.632-3.857-3.161-3.857
		c-1.77,0-3.382,0.822-4.582,1.643l-1.011-1.801c1.423-0.916,3.571-1.992,6.036-1.992c3.763,0,5.342,2.497,5.342,6.322v9.419h-2.148
		l-0.222-1.834h-0.095c-1.454,1.202-3.16,2.214-5.089,2.214C321.159,188.08,319.231,186.467,319.231,183.717z M328.65,183.939
		v-4.268c-5.12,0.633-6.89,1.898-6.89,3.857c0,1.738,1.201,2.465,2.717,2.465C325.964,185.993,327.165,185.266,328.65,183.939z"/>
	<path id="XMLID_65_" style="fill:#FFFFFF;" d="M337.214,172.339h2.15l0.222,2.212h0.094c1.454-1.454,3.034-2.592,5.153-2.592
		c3.224,0,4.677,2.086,4.677,6.006v9.735h-2.592v-9.388c0-2.876-0.885-4.108-2.908-4.108c-1.581,0-2.655,0.821-4.204,2.37V187.7
		h-2.592V172.339z"/>
	<path id="XMLID_62_" style="fill:#FFFFFF;" d="M354.502,180.051c0-4.993,3.161-8.092,6.669-8.092c1.77,0,2.94,0.664,4.299,1.77
		l-0.127-2.623v-5.911h2.623V187.7h-2.15l-0.22-1.801h-0.095c-1.201,1.169-2.845,2.181-4.646,2.181
		C356.998,188.08,354.502,185.173,354.502,180.051z M365.343,183.781v-8.029c-1.296-1.169-2.465-1.612-3.73-1.612
		c-2.465,0-4.424,2.371-4.424,5.88c0,3.666,1.548,5.88,4.235,5.88C362.847,185.899,364.079,185.204,365.343,183.781z"/>
	<path id="XMLID_59_" style="fill:#FFFFFF;" d="M373.779,167.502c0-1.011,0.791-1.674,1.802-1.674c1.011,0,1.801,0.663,1.801,1.674
		c0,0.98-0.79,1.676-1.801,1.676C374.57,169.178,373.779,168.483,373.779,167.502z M374.254,172.339h2.592V187.7h-2.592V172.339z"/>
	<path id="XMLID_57_" style="fill:#FFFFFF;" d="M381.427,185.962l1.296-1.738c1.327,1.074,2.686,1.834,4.52,1.834
		c2.023,0,3.034-1.075,3.034-2.403c0-1.581-1.834-2.276-3.508-2.908c-2.181-0.791-4.584-1.834-4.584-4.426
		c0-2.465,1.96-4.362,5.279-4.362c1.928,0,3.603,0.791,4.773,1.738l-1.233,1.643c-1.043-0.79-2.15-1.359-3.508-1.359
		c-1.928,0-2.814,1.043-2.814,2.212c0,1.454,1.676,1.992,3.414,2.656c2.212,0.821,4.677,1.738,4.677,4.646
		c0,2.497-1.99,4.584-5.626,4.584C384.967,188.08,382.881,187.163,381.427,185.962z"/>
	<path id="XMLID_54_" style="fill:#FFFFFF;" d="M396.345,180.051c0-5.026,3.382-8.092,6.89-8.092c3.921,0,6.133,2.814,6.133,7.207
		c0,0.538-0.031,1.107-0.095,1.485h-10.366c0.189,3.256,2.181,5.342,5.12,5.342c1.454,0,2.687-0.474,3.824-1.201l0.918,1.707
		c-1.327,0.854-2.972,1.581-5.057,1.581C399.599,188.08,396.345,185.077,396.345,180.051z M407.091,178.786
		c0-3.097-1.39-4.773-3.793-4.773c-2.15,0-4.11,1.738-4.426,4.773H407.091z"/>
	<path id="XMLID_52_" style="fill:#FFFFFF;" d="M420.553,180.051c0-5.153,3.446-8.092,7.396-8.092c2.023,0,3.414,0.822,4.488,1.802
		l-1.327,1.706c-0.885-0.79-1.834-1.359-3.066-1.359c-2.783,0-4.806,2.403-4.806,5.942c0,3.508,1.929,5.88,4.742,5.88
		c1.423,0,2.656-0.696,3.603-1.549l1.138,1.738c-1.391,1.233-3.13,1.96-4.962,1.96C423.681,188.08,420.553,185.14,420.553,180.051z"
		/>
	<path id="XMLID_49_" style="fill:#FFFFFF;" d="M435.406,180.051c0-5.153,3.35-8.092,7.112-8.092s7.112,2.939,7.112,8.092
		c0,5.089-3.35,8.029-7.112,8.029S435.406,185.14,435.406,180.051z M446.943,180.051c0-3.539-1.771-5.942-4.426-5.942
		c-2.623,0-4.426,2.403-4.426,5.942c0,3.508,1.802,5.88,4.426,5.88C445.172,185.931,446.943,183.559,446.943,180.051z"/>
	<path id="XMLID_47_" style="fill:#FFFFFF;" d="M454.779,172.339h2.15l0.222,2.212h0.094c1.327-1.454,2.941-2.592,4.773-2.592
		c2.339,0,3.603,1.107,4.236,2.939c1.612-1.738,3.192-2.939,5.057-2.939c3.16,0,4.677,2.086,4.677,6.006v9.735h-2.592v-9.388
		c0-2.876-0.916-4.108-2.845-4.108c-1.201,0-2.434,0.79-3.855,2.37V187.7h-2.592v-9.388c0-2.876-0.918-4.108-2.876-4.108
		c-1.138,0-2.434,0.79-3.857,2.37V187.7h-2.592V172.339z"/>
	<path id="XMLID_44_" style="fill:#FFFFFF;" d="M482.084,172.339h2.15l0.222,1.77h0.094c1.391-1.169,3.098-2.15,4.899-2.15
		c3.951,0,6.069,3.066,6.069,7.839c0,5.215-3.13,8.282-6.638,8.282c-1.423,0-2.844-0.664-4.266-1.771l0.063,2.687v5.184h-2.592
		V172.339z M492.832,179.798c0-3.382-1.138-5.658-4.046-5.658c-1.296,0-2.592,0.727-4.11,2.087v8.059
		c1.391,1.169,2.75,1.613,3.761,1.613C490.967,185.899,492.832,183.592,492.832,179.798z"/>
	<path id="XMLID_41_" style="fill:#FFFFFF;" d="M499.341,183.717c0-3.35,2.876-5.025,9.419-5.752c0-1.96-0.632-3.857-3.161-3.857
		c-1.77,0-3.382,0.822-4.582,1.643l-1.011-1.801c1.423-0.916,3.571-1.992,6.036-1.992c3.763,0,5.342,2.497,5.342,6.322v9.419h-2.148
		l-0.222-1.834h-0.095c-1.454,1.202-3.16,2.214-5.089,2.214C501.268,188.08,499.341,186.467,499.341,183.717z M508.76,183.939
		v-4.268c-5.12,0.633-6.89,1.898-6.89,3.857c0,1.738,1.201,2.465,2.717,2.465C506.074,185.993,507.274,185.266,508.76,183.939z"/>
	<path id="XMLID_39_" style="fill:#FFFFFF;" d="M517.324,172.339h2.15l0.221,2.212h0.095c1.454-1.454,3.034-2.592,5.151-2.592
		c3.225,0,4.679,2.086,4.679,6.006v9.735h-2.592v-9.388c0-2.876-0.885-4.108-2.908-4.108c-1.581,0-2.656,0.821-4.204,2.37V187.7
		h-2.592V172.339z"/>
	<path id="XMLID_37_" style="fill:#FFFFFF;" d="M534.167,193.991l0.506-2.056c0.316,0.095,0.79,0.222,1.169,0.222
		c1.738,0,2.845-1.391,3.477-3.288l0.349-1.138l-6.164-15.392h2.686l3.13,8.503c0.474,1.327,1.011,2.908,1.485,4.33h0.127
		c0.442-1.391,0.885-2.972,1.296-4.33l2.75-8.503h2.529l-5.784,16.626c-1.076,3.034-2.656,5.342-5.753,5.342
		C535.274,194.307,534.674,194.18,534.167,193.991z"/>
</g>
<g id="XMLID_34_">
	<rect id="XMLID_35_" x="77.47" y="69.936" style="fill:#FFFFFF;" width="2.913" height="79.196"/>
</g>
<g id="XMLID_32_">
	<rect id="XMLID_33_" x="88.169" y="69.936" style="fill:#FFFFFF;" width="2.913" height="79.196"/>
</g>
<g id="XMLID_30_">
	<rect id="XMLID_31_" x="199.974" y="69.936" style="fill:#FFFFFF;" width="2.913" height="27.771"/>
</g>
<g id="XMLID_28_">
	<rect id="XMLID_29_" x="47.567" y="57.781" style="fill:#FFFFFF;" width="73.42" height="2.913"/>
</g>
<g id="XMLID_26_">
	<rect id="XMLID_27_" x="314.006" y="57.896" style="fill:#FFFFFF;" width="2.913" height="91.236"/>
</g>
<g id="XMLID_24_">
	<rect id="XMLID_25_" x="386.056" y="84.578" style="fill:#FFFFFF;" width="2.913" height="64.555"/>
</g>
<g id="XMLID_22_">
	<rect id="XMLID_23_" x="47.567" y="68.48" style="fill:#FFFFFF;" width="73.42" height="2.913"/>
</g>
<g id="XMLID_20_">
	<path id="XMLID_21_" style="fill:#FFFFFF;" d="M236.167,103.665l-1.959-2.157c4.864-4.42,7.768-11.032,7.768-17.686
		c0-5.425-1.634-23.127-22.653-23.127h-30.049v-2.913h30.049c18.851,0,25.567,13.452,25.567,26.041
		C244.89,91.283,241.629,98.701,236.167,103.665z"/>
</g>
<g id="XMLID_16_">
	<path id="XMLID_17_" style="fill:#FFFFFF;" d="M192.188,148.619h-2.913V68.48h30.048c8.906,0,15.37,6.452,15.37,15.342
		c0,9.32-6.68,15.343-17.018,15.343h-25.487V148.619z M192.188,96.251h25.487c8.7,0,14.104-4.763,14.104-12.429
		c0-7.318-5.122-12.429-12.456-12.429h-27.135V96.251z"/>
</g>
<g id="XMLID_14_">
	<path id="XMLID_15_" style="fill:#FFFFFF;" d="M219.323,137.965H201.43v-2.913h17.893c6.9,0,12.456-6.89,12.456-12.594
		c0-6.19-5.276-12.594-14.104-12.594h-26.943v-2.913h26.943c10.652,0,17.018,7.885,17.018,15.507
		C234.693,129.629,227.979,137.965,219.323,137.965z"/>
</g>
<g id="XMLID_12_">
	<path id="XMLID_13_" style="fill:#FFFFFF;" d="M219.323,148.664h-19.349v-40.258h2.913v37.345h16.436
		c16.95,0,22.653-15.883,22.653-23.129c0-17.295-12.554-23.458-24.301-23.458v-2.913c20.066,0,27.215,13.623,27.215,26.371
		C244.89,133.125,236.764,148.664,219.323,148.664z"/>
</g>
<g id="XMLID_10_">
	<polygon id="XMLID_11_" style="fill:#FFFFFF;" points="327.617,149.132 324.704,149.132 324.704,66.311 357.74,100.781 
		355.637,102.797 327.617,73.562 	"/>
</g>
<g id="XMLID_8_">
	<polygon id="XMLID_9_" style="fill:#FFFFFF;" points="399.669,149.132 396.756,149.132 396.756,61.551 349.516,111.389 
		325.109,85.923 327.212,83.907 349.504,107.167 399.669,54.242 	"/>
</g>
<g id="XMLID_6_">
	
		<rect id="XMLID_7_" x="375.483" y="64.867" transform="matrix(0.7216 0.6923 -0.6923 0.7216 171.1314 -234.3405)" style="fill:#FFFFFF;" width="2.914" height="61.488"/>
</g>
<g id="XMLID_4_">
	<path id="XMLID_5_" style="fill:#FFFFFF;" d="M512.821,148.664c-25.056,0-45.442-20.386-45.442-45.442s20.386-45.441,45.442-45.441
		c12.331,0,23.87,4.856,32.491,13.673l-2.083,2.037c-8.069-8.252-18.868-12.796-30.408-12.796c-23.45,0-42.529,19.078-42.529,42.528
		s19.078,42.529,42.529,42.529c11.358,0,22.037-4.424,30.072-12.456l2.06,2.06C536.369,143.937,524.957,148.664,512.821,148.664z"/>
</g>
<g id="XMLID_2_">
	<path id="XMLID_3_" style="fill:#FFFFFF;" d="M512.821,137.965c-19.157,0-34.743-15.586-34.743-34.743
		c0-19.157,15.586-34.743,34.743-34.743c9.428,0,18.249,3.712,24.841,10.453l-2.083,2.037c-6.039-6.175-14.122-9.577-22.759-9.577
		c-17.551,0-31.829,14.279-31.829,31.829s14.279,31.829,31.829,31.829c8.501,0,16.495-3.31,22.507-9.322l2.06,2.06
		C530.826,134.352,522.102,137.965,512.821,137.965z"/>
</g>
</svg>
