<?xml version="1.0" encoding="utf-8"?>
<!-- Generator: Adobe Illustrator 19.0.0, SVG Export Plug-In . SVG Version: 6.00 Build 0)  -->
<svg version="1.1" id="Layer_1" xmlns="http://www.w3.org/2000/svg" xmlns:xlink="http://www.w3.org/1999/xlink" x="0px" y="0px"
	 viewBox="-281 404.9 32 32" style="enable-background:new -281 404.9 32 32;" xml:space="preserve">
<style type="text/css">
	.st0{fill:#FFFFFF;}
</style>
<path class="st0" d="M-255.4,408.2h-19.3c-1.7,0-3,1.3-3,3v19.3c0,1.7,1.3,3,3,3h19.3c1.7,0,3-1.3,3-3v-19.3
	C-252.3,409.6-253.7,408.2-255.4,408.2z M-258.7,411.4h2.4c0.5,0,0.8,0.3,0.8,0.8v2.4c0,0.5-0.3,0.8-0.8,0.8h-2.4
	c-0.5,0-0.8-0.3-0.8-0.8v-2.4C-259.5,411.7-259.1,411.4-258.7,411.4z M-265,416.1c2.7,0,4.9,2.1,4.9,4.8c0,2.7-2.2,4.8-4.9,4.8
	s-4.9-2.1-4.9-4.8C-269.8,418.2-267.7,416.1-265,416.1z M-255.5,431.2h-19c-0.5,0-0.8-0.3-0.8-0.8v-11.9h3.2
	c-0.4,0.6-0.6,1.7-0.6,2.4c0,4.3,3.5,7.7,7.7,7.7c4.3,0,7.7-3.5,7.7-7.7c0-0.7-0.1-1.8-0.6-2.4h3.2v11.9
	C-254.7,430.9-255,431.2-255.5,431.2z"/>
</svg>
