<?xml version="1.0" encoding="utf-8"?>
<!-- Generator: Adobe Illustrator 19.0.0, SVG Export Plug-In . SVG Version: 6.00 Build 0)  -->
<svg version="1.1" id="Layer_1" xmlns="http://www.w3.org/2000/svg" xmlns:xlink="http://www.w3.org/1999/xlink" x="0px" y="0px"
	 viewBox="-281 404.9 32 32" style="enable-background:new -281 404.9 32 32;" xml:space="preserve">
<style type="text/css">
	.st0{fill:#FFFFFF;}
</style>
<path class="st0" d="M-253.4,408.3h-24.2v24.1c0,0.6,0.5,1.1,1,1.1h24.1v-24.2C-252.4,408.8-252.9,408.3-253.4,408.3z M-270.1,429.8
	h-3.8v-12h3.8V429.8z M-272,416.1c-1.2,0-2.2-0.9-2.2-2.2c0-1.2,0.9-2.2,2.2-2.2c1.2,0,2.2,0.9,2.2,2.2S-270.8,416.1-272,416.1z
	 M-256.1,429.8h-3.7V424c0-1.4,0-3.1-2-3.1c-2,0-2.2,1.5-2.2,3.1v6h-3.7v-12.1h3.5v1.7h0.1c0.5-0.9,1.7-2,3.5-2
	c3.8,0,4.5,2.5,4.5,5.7V429.8z"/>
<rect x="-287.9" y="402" class="st0" width="11.2" height="43"/>
<rect x="-255.4" y="398.1" class="st0" width="8.9" height="50.7"/>
<rect x="-298.5" y="431.1" class="st0" width="69.1" height="18"/>
<rect x="-301.6" y="398.5" class="st0" width="70.2" height="11.7"/>
</svg>
